<svg xmlns="http://www.w3.org/2000/svg" viewBox="0 0 30 29" width="30" height="29">
	<style>
		tspan { white-space:pre }
		.shp0 { fill: #130f0e;stroke: #fafafa;stroke-width: 100 } 
	</style>
	<g id="Grafico crises">
		<path id="Rounded Rectangle 6 copy 3 copiar 4" class="shp0" d="M5.35 1.65L24.65 1.65C26.6 1.65 28.18 3.23 28.18 5.17C28.18 7.12 26.6 8.7 24.65 8.7L5.35 8.7C3.4 8.7 1.82 7.12 1.82 5.17C1.82 3.23 3.4 1.65 5.35 1.65ZM5.35 10.89L24.65 10.89C26.6 10.89 28.18 12.46 28.18 14.41C28.18 16.36 26.6 17.94 24.65 17.94L5.35 17.94C3.4 17.94 1.82 16.36 1.82 14.41C1.82 12.46 3.4 10.89 5.35 10.89ZM5.35 20.12L24.65 20.12C26.6 20.12 28.18 21.7 28.18 23.65C28.18 25.6 26.6 27.18 24.65 27.18L5.35 27.18C3.4 27.18 1.82 25.6 1.82 23.65C1.82 21.7 3.4 20.12 5.35 20.12Z" />
	</g>
</svg>