<svg xmlns="http://www.w3.org/2000/svg" viewBox="0 0 58 58" width="58" height="58">
	<style>
		tspan { white-space:pre }
		.shp0 { fill: #c77ebe }
		.shp1 { fill: #fff;}
	</style>
	<g id="Grafico crises">
		<path id="Ellipse 4 copy 7 copiar 3" class="shp0" d="M29 1C44.46 1 57 13.54 57 29C57 44.46 44.46 57 29 57C13.54 57 1 44.46 1 29C1 13.54 13.54 1 29 1Z" />
		<path id="Rounded Rectangle 6 copy 3 copiar 4" class="shp1" d="M19.35 16.65L38.65 16.65C40.6 16.65 42.18 18.23 42.18 20.17C42.18 22.12 40.6 23.7 38.65 23.7L19.35 23.7C17.4 23.7 15.82 22.12 15.82 20.17C15.82 18.23 17.4 16.65 19.35 16.65ZM19.35 25.89L38.65 25.89C40.6 25.89 42.18 27.46 42.18 29.41C42.18 31.36 40.6 32.94 38.65 32.94L19.35 32.94C17.4 32.94 15.82 31.36 15.82 29.41C15.82 27.46 17.4 25.89 19.35 25.89ZM19.35 35.12L38.65 35.12C40.6 35.12 42.18 36.7 42.18 38.65C42.18 40.6 40.6 42.18 38.65 42.18L19.35 42.18C17.4 42.18 15.82 40.6 15.82 38.65C15.82 36.7 17.4 35.12 19.35 35.12Z" />
	</g>
</svg>